<svg xmlns="http://www.w3.org/2000/svg" xmlns:xlink="http://www.w3.org/1999/xlink" id="Capa_1" x="0" y="0" version="1.1" viewBox="0 0 512.005 512.005" xml:space="preserve" style="enable-background:new 0 0 512.005 512.005"><path style="fill:#303c42" d="M440.888,64.609l-181.333-64c-2.292-0.812-4.813-0.812-7.104,0l-181.333,64	c-4.26,1.51-7.115,5.542-7.115,10.063v128c0,165.646,24.563,226.188,187.198,308.188c1.51,0.76,3.156,1.146,4.802,1.146	c1.646,0,3.292-0.385,4.802-1.146c162.635-82,187.198-142.542,187.198-308.188v-128C448.003,70.151,445.148,66.12,440.888,64.609z"/><path style="fill:#1e88e5" d="M256.003,21.984L85.336,82.224v120.448c0,19.303,0.318,36.962,1.115,53.328h169.552V21.984z"/><path style="fill:#01579b" d="M425.555,256c0.797-16.366,1.115-34.025,1.115-53.328V82.224l-170.667-60.24V256H425.555z"/><path style="fill:#1e88e5" d="M256.003,256v233.38C388.137,422.014,419.801,374.145,425.555,256H256.003z"/><path style="fill:#01579b" d="M86.451,256c5.754,118.145,37.418,166.014,169.552,233.38V256H86.451z"/><path style="opacity:.1;enable-background:new" d="M256.003,448.005C105.565,371.307,85.336,341.286,85.336,182.63v20.042	c0,158.656,20.229,210.01,170.667,286.708c150.438-76.698,170.667-128.052,170.667-286.708V182.63	C426.669,341.286,406.44,371.307,256.003,448.005z"/><linearGradient id="SVGID_1_" x1="-45.207" x2="-25.978" y1="639.868" y2="630.902" gradientTransform="matrix(21.3333 0 0 -21.3333 996.2804 13791.7256)" gradientUnits="userSpaceOnUse"><stop offset="0" style="stop-color:#fff;stop-opacity:.2"/><stop offset="1" style="stop-color:#fff;stop-opacity:0"/></linearGradient><path style="fill:url(#SVGID_1_)" d="M440.888,64.609l-181.333-64c-2.292-0.812-4.813-0.812-7.104,0l-181.333,64	c-4.26,1.51-7.115,5.542-7.115,10.063v128c0,165.646,24.563,226.188,187.198,308.188c1.51,0.76,3.156,1.146,4.802,1.146	c1.646,0,3.292-0.385,4.802-1.146c162.635-82,187.198-142.542,187.198-308.188v-128C448.003,70.151,445.148,66.12,440.888,64.609z"/></svg>